<svg width="1080" height="251" viewBox="0 0 1080 251" fill="none" xmlns="http://www.w3.org/2000/svg">
<path d="M0 9.28C0 8.09112 0 7.49668 0.0630824 6.99733C0.520801 3.37412 3.37412 0.520801 6.99733 0.0630824C7.49668 0 8.09112 0 9.28 0H1070.72C1071.91 0 1072.5 0 1073 0.0630824C1076.63 0.520801 1079.48 3.37412 1079.94 6.99733C1080 7.49668 1080 8.09112 1080 9.28V241.72C1080 242.909 1080 243.503 1079.94 244.003C1079.48 247.626 1076.63 250.479 1073 250.937C1072.5 251 1071.91 251 1070.72 251H9.28001C8.09113 251 7.49668 251 6.99733 250.937C3.37412 250.479 0.520801 247.626 0.0630824 244.003C0 243.503 0 242.909 0 241.72V9.28Z" fill="url(#paint0_linear_61_2)"/>
<defs>
<linearGradient id="paint0_linear_61_2" x1="1102" y1="-38" x2="992.254" y2="433.607" gradientUnits="userSpaceOnUse">
<stop stop-color="#3C786A"/>
<stop offset="1" stop-color="#103028"/>
</linearGradient>
</defs>
</svg>
